<svg xmlns="http://www.w3.org/2000/svg" viewBox="0 0 11.7 16.63"><defs><style>.cls-1{fill:#007d8e;}.cls-2{fill:#82b0bc;}.cls-3{fill:#fff;}</style></defs><g id="Capa_2" data-name="Capa 2"><g id="Capa_1-2" data-name="Capa 1"><path class="cls-1" d="M11.7,3.29s-.71,8.07-1.1,12c-1.56.46-4.67,1.37-4.76,1.37s-3.18-.91-4.77-1.37C.71,11.36,0,3.29,0,3.29Zm-1.08,1L9.75,14.51,5.83,15.63l0-11.39Z"/><polygon class="cls-2" points="11.7 3.29 10.64 15.34 5.8 16.63 5.8 3.29 11.7 3.29"/><path class="cls-3" d="M9.5,5.76l-.13,1.4H3.76L3.91,8.7l5.33,0-.39,4.52-3,.82-3-.82L2.66,11H4.09l.09,1.14,1.66.46s1.1-.29,1.65-.46c0,0,.19-1.95.19-1.95H2.56L2.21,5.76Z"/><path class="cls-1" d="M1.79,0V.75h.74V0h.68V2.21H2.53V1.47H1.79v.74H1.1V0ZM5.61,0V.72H5V2.21H4.25V.72H3.6V0ZM6.74,0c.17.26.29.52.49.78L7.72,0h.74V2.21H7.75V1.11a8.81,8.81,0,0,0-.52.78l-.55-.78v1.1H6V0ZM9.59,0V1.5h1v.71H8.88V0Z"/></g></g></svg>